<svg width="116" height="46" viewBox="0 0 116 46" fill="none" xmlns="http://www.w3.org/2000/svg">
<path d="M21.8909 10.822C22.311 10.7737 22.7977 10.8676 23.2024 10.9909C24.118 11.2699 24.8624 11.8668 25.3039 12.7195C25.7627 13.5935 25.8506 14.6158 25.5481 15.5554C25.1638 16.7143 24.3391 17.2971 23.3098 17.8327L23.3215 21.2126C24.057 21.4369 24.7728 21.6908 25.4407 22.0779C26.9757 22.9677 28.0257 24.4683 28.466 26.1755C28.9314 27.9659 28.6672 29.8688 27.7307 31.4646C26.8718 32.911 25.5021 33.9792 23.8625 34.3884C21.7206 34.9236 19.9037 34.3443 18.0627 33.2497C17.2491 34.1197 16.445 34.9993 15.6516 35.8884C16.0064 36.7252 16.1242 37.6037 15.8889 38.4929C15.659 39.3622 15.0499 40.1072 14.2707 40.5476C13.3976 41.0417 12.4028 41.1311 11.4455 40.8572C10.4956 40.5853 9.69695 39.9973 9.23265 39.113C8.77564 38.2436 8.73714 37.2248 9.03343 36.2966C9.37047 35.2419 10.0567 34.5922 11.0217 34.1101C12.0606 33.7037 12.9197 33.8375 13.9338 34.2029C14.7782 33.3143 15.573 32.3805 16.426 31.4997C15.4886 29.6612 15.1847 28.095 15.6721 26.0691C14.6108 25.5736 13.5875 24.997 12.5256 24.5007C11.9581 25.0914 11.264 25.4965 10.4494 25.6335C9.47814 25.7969 8.45391 25.5319 7.6555 24.9616C6.86432 24.3885 6.34384 23.5142 6.21605 22.5456C6.08499 21.6065 6.33242 20.5719 6.93382 19.8308C7.55409 19.0663 8.51651 18.6045 9.48851 18.5027C10.4435 18.4096 11.3962 18.7013 12.136 19.3122C13.0818 20.1045 13.3553 21.0897 13.47 22.2634C14.4765 22.8805 15.6292 23.356 16.678 23.907C18.0427 22.2936 19.0404 21.7848 21.0295 21.1716L21.0305 17.8171C20.6745 17.6746 20.3192 17.5012 20.009 17.2732C19.2243 16.6926 18.7085 15.8182 18.5813 14.8503C18.4637 13.8875 18.7361 12.9174 19.3371 12.156C19.9941 11.3319 20.8722 10.9568 21.8909 10.822ZM26.2766 27.5085C26.0743 25.2009 24.0462 23.4897 21.7375 23.6775C19.4084 23.8672 17.6789 25.9163 17.883 28.2439C18.0872 30.5723 20.1472 32.2896 22.4739 32.071C24.7799 31.8537 26.4788 29.8158 26.2766 27.5085Z" fill="#764191"/>
<path d="M104.917 22.2676C105.603 22.2685 106.289 22.2774 106.975 22.2949L106.971 25.9209C107.499 25.51 108.075 25.2035 108.744 25.1035C109.648 24.9667 110.57 25.2012 111.299 25.7529C112.179 26.4182 112.641 27.538 112.774 28.6084C112.944 29.9663 112.625 31.272 111.787 32.3545C111.231 32.891 110.564 33.2665 109.795 33.3926C108.666 33.578 107.771 33.1832 106.891 32.5264L106.887 33.3184L104.918 33.3145L104.917 22.2676ZM108.443 27.0186C107.832 27.2217 107.406 27.5119 107.108 28.1006C106.777 28.7541 106.754 29.5621 107.013 30.2432C107.21 30.7647 107.58 31.216 108.095 31.4482C108.469 31.6175 108.821 31.6227 109.224 31.5986C109.862 31.3572 110.292 31.0475 110.581 30.4082C110.883 29.7406 110.878 28.9356 110.592 28.2637C110.372 27.7469 109.98 27.3306 109.452 27.126C109.122 26.9986 108.791 26.9817 108.443 27.0186Z" fill="#764191"/>
<path d="M45.9814 22.2466C47.1884 25.9666 48.733 29.5855 49.9102 33.3159L47.6855 33.3179C47.4248 32.5214 47.1733 31.6206 46.7754 30.8843C46.5154 30.7731 46.2077 30.8104 45.9297 30.814C44.8568 30.8246 43.7837 30.8216 42.7109 30.8032C42.3741 31.6251 42.1026 32.4702 41.8359 33.3169L39.5703 33.3149C40.7536 29.6016 42.1641 25.9356 43.4414 22.2515C44.2864 22.2698 45.1361 22.25 45.9814 22.2466ZM44.7129 24.9966C44.2445 26.3281 43.8077 27.6779 43.2949 28.9927L44.9238 28.9917L46.1895 28.978C46.0117 28.4776 44.9786 25.2185 44.7129 24.9966Z" fill="#764191"/>
<path d="M92.8819 22.2705L95.0094 22.2833C94.9804 24.8478 95.003 27.4159 95.0023 29.9803C95.0016 31.0387 95.1092 32.1956 94.9903 33.2399L94.8735 33.3199H92.8797L92.8755 28.5841C91.2818 28.5395 89.6761 28.5791 88.081 28.5813L88.0817 33.322L85.9414 33.3178L85.9499 22.2735L88.0817 22.2784L88.0831 26.7943H92.8847L92.8819 22.2705Z" fill="#764191"/>
<path d="M96.2896 25.332C96.9955 25.3522 97.7035 25.3448 98.4093 25.3487C98.4008 26.4774 98.2224 29.5953 98.4957 30.5285C98.6033 30.8966 98.8185 31.2337 99.1669 31.4128C99.6908 31.6818 100.223 31.526 100.744 31.3434C100.974 31.0857 101.173 30.8443 101.287 30.5115C101.66 29.4233 101.461 26.6303 101.455 25.3357C102.128 25.3537 102.802 25.3396 103.475 25.3361C103.459 26.1114 103.472 26.8894 103.471 27.6654L103.481 33.3166C102.82 33.3265 102.159 33.3215 101.498 33.3017L101.437 33.2302C101.447 33.0624 101.449 32.9258 101.42 32.7587C100.8 33.027 100.249 33.4341 99.5442 33.4483C98.7272 33.4645 97.8408 33.2111 97.2546 32.6234C96.81 32.1788 96.5388 31.5806 96.3993 30.9738C96.0991 29.6683 96.2761 26.7768 96.2896 25.332Z" fill="#764191"/>
<path d="M67.6956 25.1094C68.7505 25.0268 69.8501 25.1013 70.7025 25.8119C71.3 26.3095 71.4933 26.907 71.5577 27.6497L69.6511 27.6476C69.5414 27.4437 69.4316 27.2072 69.2596 27.0479C68.9849 26.7944 68.587 26.6627 68.2153 26.6826C67.9264 26.6981 67.5576 26.8135 67.3777 27.0578C67.2687 27.2065 67.2085 27.3594 67.2503 27.5449C67.4669 28.5226 69.9527 28.4016 70.7442 28.9191C71.2476 29.249 71.6342 29.8402 71.7461 30.43C71.8579 31.0332 71.7142 31.6562 71.3503 32.1497C70.7428 32.9872 69.8069 33.2881 68.8327 33.4375C67.9307 33.492 66.885 33.2499 66.1628 32.7005C65.486 32.1851 65.2424 31.5529 65.1504 30.7387C65.7925 30.7401 66.4354 30.7337 67.0775 30.721C67.1151 30.842 67.1568 30.9588 67.2177 31.0707C67.4974 31.5868 68.056 31.7015 68.5735 31.8537C68.9155 31.7752 69.3785 31.6874 69.6214 31.4113C69.7679 31.2442 69.8189 30.9546 69.7573 30.7422C69.5201 29.9252 67.1384 29.8289 66.3122 29.3205C65.823 29.0189 65.4633 28.58 65.3331 28.0136C65.2155 27.5003 65.2601 26.9233 65.549 26.4737C66.0701 25.6598 66.7894 25.3256 67.6956 25.1094Z" fill="#764191"/>
<path d="M80.5252 25.1071C81.1256 25.0585 81.7139 25.0618 82.2994 25.2201C82.9749 25.4029 83.692 25.7802 84.0333 26.4199C84.1976 26.7265 84.3236 27.278 84.2131 27.6185C83.6659 27.7368 82.9975 27.6568 82.4354 27.6504C82.3525 27.3722 82.2824 27.1576 82.0566 26.9651C81.7706 26.7258 81.3989 26.6125 81.0279 26.6528C80.7376 26.6826 80.3645 26.8256 80.2023 27.0854C80.1054 27.2405 80.0657 27.3998 80.1266 27.5782C80.4778 28.6126 82.5826 28.3669 83.4011 28.8342C83.9222 29.1322 84.3583 29.6562 84.5062 30.2424C84.6655 30.8718 84.5601 31.5713 84.1969 32.1129C83.6545 32.9214 82.7929 33.2259 81.8838 33.4021C80.9911 33.5126 79.9574 33.3228 79.2112 32.8081C78.4451 32.28 78.215 31.6173 78.043 30.7514L79.9546 30.7373C80.0707 31.0297 80.1762 31.2576 80.424 31.4601C80.7539 31.7306 81.1454 31.8531 81.5709 31.7964C81.9008 31.7525 82.2258 31.601 82.4233 31.3249C82.5522 31.1436 82.6166 30.9235 82.555 30.7033C82.3157 29.853 80.2052 29.9061 79.3676 29.4551C78.8019 29.1499 78.3538 28.643 78.1747 28.0207C78.0224 27.4939 78.0862 26.9452 78.3644 26.4716C78.8267 25.6871 79.6749 25.3033 80.5252 25.1071Z" fill="#764191"/>
<path d="M56.9953 23.1392C57.6297 23.161 58.269 23.1475 58.9041 23.1503C58.897 23.8668 58.9076 24.5835 58.9352 25.2997L60.8185 25.3008L60.8142 26.9422L59.0209 26.9415C59.0216 27.9745 58.7851 30.6394 59.2595 31.4373C59.6297 31.729 60.3689 31.6199 60.8185 31.615L60.8121 32.975C60.8163 33.1152 60.8156 33.186 60.7441 33.3085C60.4935 33.4289 60.2365 33.4558 59.9597 33.4579C59.2311 33.4643 58.2251 33.3326 57.7012 32.7867C56.6491 31.6914 56.9854 28.4687 56.9903 26.9401L55.7751 26.9422L55.7788 25.2971L56.9889 25.3053L56.9953 23.1392Z" fill="#764191"/>
<path d="M73.366 23.1304L75.2393 23.1411C75.2252 23.8589 75.2549 24.5801 75.2684 25.2979L77.1821 25.2941L77.1792 26.9432L75.3781 26.9418C75.4001 27.9252 75.1593 30.6715 75.6047 31.4149C76.0833 31.7009 76.6829 31.6245 77.221 31.623C77.2146 32.0967 77.2239 32.5717 77.226 33.0461L77.2033 33.2259C77.0178 33.4221 76.7325 33.4136 76.4797 33.4199C75.7102 33.4383 74.6475 33.3166 74.0896 32.7325C73.0481 31.6421 73.3724 28.4647 73.3816 26.9411L72.1001 26.9418C72.0838 26.3959 72.0902 25.8483 72.0859 25.3024L73.3625 25.309L73.366 23.1304Z" fill="#764191"/>
<path d="M32.9502 21.9033C33.0487 21.8984 33.1443 21.897 33.2423 21.9112C33.5485 21.9556 33.8502 22.1035 34.0189 22.3723C34.1978 22.6576 34.2223 23.0374 34.2468 23.3678C34.3682 25.0031 34.278 26.7044 34.2776 28.3455C34.2772 29.6857 34.4258 31.5031 34.1769 32.7938C34.0986 33.1995 33.8296 33.3935 33.5074 33.613C33.3847 33.6278 33.2563 33.6448 33.1325 33.6378C32.8561 33.6222 32.5942 33.499 32.4154 33.288C32.2386 33.0791 32.2437 32.66 32.2281 32.3981C32.1157 30.5169 32.2107 28.5756 32.2124 26.6888C32.2134 25.6166 32.066 23.5641 32.2915 22.6073C32.3721 22.265 32.6806 22.0856 32.9502 21.9033Z" fill="#764191"/>
<path d="M54.6737 25.2712L54.9428 25.2681C55.2619 25.6248 55.1035 26.7549 55.0933 27.2228C54.4191 27.2158 53.7815 27.1889 53.2534 27.6788C52.2624 28.5978 52.5965 31.9657 52.5866 33.3172C52.0554 33.3123 51.0206 33.5063 50.6148 33.1686L50.5936 32.8337C50.6033 30.3288 50.5403 27.826 50.5563 25.3216C51.1994 25.3416 51.8446 25.328 52.488 25.3245L52.4654 26.4306C52.5847 26.2593 52.7032 26.0759 52.8417 25.9197C53.3293 25.3697 53.9905 25.32 54.6737 25.2712Z" fill="#764191"/>
<path d="M61.9891 25.3042L64.0097 25.305L64.0147 33.3214L61.9707 33.3185L61.9891 25.3042Z" fill="#764191"/>
<path d="M30.1281 24.5303C30.4599 24.5914 30.7534 24.7161 30.9468 25.0043C31.245 25.4488 31.253 29.8042 31.1036 30.4258C31.0219 30.7656 30.7279 30.9313 30.4492 31.0949C30.1299 31.0757 29.7103 31.0474 29.4971 30.7706C29.1799 30.3593 29.2062 25.7303 29.3868 25.1498C29.4917 24.8125 29.8385 24.67 30.1281 24.5303Z" fill="#764191"/>
<path d="M62.866 22.0014C63.4664 21.9308 64.0144 22.3504 64.1022 22.9484C64.1907 23.5464 63.7871 24.1062 63.1924 24.212C62.791 24.2832 62.3832 24.1308 62.1276 23.8141C61.8713 23.4975 61.8083 23.0666 61.9619 22.6896C62.1156 22.3126 62.4618 22.0489 62.866 22.0014Z" fill="#764191"/>
</svg>
