<svg xmlns="http://www.w3.org/2000/svg" style="display:none">
  <defs>
    <symbol id="icon-logo" viewBox="0 0 112 32">
      <path fill="#fff"
        d="M17 0h1l2 2v3l-2 2v4l2 1c2 1 3 2 3 4v6l-4 3c-3 0-5 0-6-2l-3 3v3l-1 2H6l-3-1a4 4 0 0 1 2-6h3l3-2-1-6-3-2-2 2-3-1-2-3 1-2 3-2 2 1 2 3 3 2 5-3V7h-1a4 4 0 0 1-1-5c1-1 1-2 3-2zm4 18a4 4 0 1 0-9 0 4 4 0 0 0 9 0zm82-6h2v4l2-1 3 1 1 3-1 4-2 1-3-1v1h-2V12zm4 5-2 1v2l1 2h1l2-1v-3l-1-1h-1zm-65-5 4 12h-3l-1-3h-4l-1 3h-2l4-12h3zm-2 3-1 4h3l-2-4zm50-3h3v11l-1 1h-2v-5h-5v5h-2V12h2v5h5v-5zm4 3h2v6l1 1 2-1v-6h2v9h-2v-1l-2 1-2-1-1-2v-6zm-30 0 3 1 1 2h-2v-1h-2v1l3 1 1 2v1l-3 2-2-1-1-2a96 96 0 0 0 2 0l1 1h1v-1l-3-2-1-1v-2l2-1zm14 0h1l2 1v2h-1l-1-1h-2v1l4 1 1 1-1 2-2 2-3-1-1-2h2v1h2l1-1-4-1-1-2v-2l3-1zm-25-2h2v2h2v2h-2v5h2v2h-1l-2-1-1-6h-1v-2h1v-2zm17 0h2v2h2v2h-2v5h2v1l-1 1-2-1-1-6h-1v-2h1v-2zm-42-1h1v12h-2V12h1zm23 3v2l-2 1-1 6-2-1v-8h2v1h1l2-1zm7 0h2v9h-2v-9zm-33-1 1 1v6h-2v-6l1-1zm34-2a1 1 0 1 1 0 2 1 1 0 0 1 0-2z" />
    </symbol>
    <symbol id="icon-right-arrow" viewBox="0 0 32 32">
      <path fill="#fff"
        d="M7 29a1 1 0 0 0 2 0l17-12a1 1 0 0 0 1-1 1 1 0 0 0-1-1L9 3a1 1 0 0 0-2 0 1 1 0 0 0 0 1v24a1 1 0 0 0 0 1zM9 7l14 9-14 9V7z" />
    </symbol>
    <symbol id="icon-caret-right" viewBox="0 0 31 32">
      <path fill="#fff" d="m12 26 10-9-10-9v18z" />
    </symbol>
    <symbol id="icon-down-arrow-alt" viewBox="0 0 31 32">
      <path fill="#fff" d="m24 17-2-2-5 5V8h-3v12l-5-5-2 2 8 8 9-8z" />
    </symbol>
    <symbol id="icon-logo-icon" viewBox="0 0 32 32">
      <path fill="#fff"
        d="M18 3h1l2 2v2l-2 2v3l2 1a6 6 0 0 1-2 10c-2 1-3 0-5-1l-2 3v2l-1 1-3 1-2-2v-2l2-2h2l3-2c-1-2-2-3-1-5l-3-1-2 1-3-1-1-2 1-2a4 4 0 0 1 5-1l1 3 3 1 4-2V9h-1l-2-2 1-3 2-1zm-1 11c-2 0-3 2-3 4s2 3 4 3 4-2 4-4-3-3-5-3zm11-1h1v9l-1 1-1-1v-9h1zm-3 2h1v5h-2v-5h1z" />
    </symbol>
    <symbol id="icon-left-arrow-alt" viewBox="0 0 31 32">
      <path fill="#fff" d="m16 23-5-6h12v-2H11l5-6-2-2-8 9 8 8 2-1z" />
    </symbol>
    <symbol id="icon-right-arrow-alt" viewBox="0 0 31 32">
      <path fill="#fff" d="m14 23 2 1 9-8-9-9-2 2 6 6H8v2h12l-6 6z" />
    </symbol>
    <symbol id="icon-Instagram" viewBox="0 0 31 32">
      <path fill="#fff"
        d="M15 7a81 81 0 0 1 7 0l1 1 1 1 1 2a81 81 0 0 1-1 12l-1 1-1 1h-2a81 81 0 0 1-11 0l-2-1-1-1v-2A81 81 0 0 1 6 9l1-1 2-1h6zm0-2a84 84 0 0 0-7 0L6 7 4 9v2a85 85 0 0 0 0 13l2 2 2 1 3 1a84 84 0 0 0 12-1l2-1 1-2 1-3a84 84 0 0 0-1-12l-1-2-2-2h-8z" />
      <path fill="#fff"
        d="M15 10a6 6 0 1 0 0 12 6 6 0 0 0 0-12zm0 10a4 4 0 1 1 0-8 4 4 0 0 1 0 8zm8-10a1 1 0 1 1-3 0 1 1 0 0 1 3 0z" />
    </symbol>
    <symbol id="icon-Facebook" viewBox="0 0 31 32">
      <path fill="#fff"
        d="M28 17c0-8-6-13-13-13a13 13 0 0 0-2 25v-9h-3v-3h3v-3c0-4 2-5 5-5h3v3h-2l-2 2v3h4l-1 3h-3v9c6-1 11-6 11-12z" />
    </symbol>
    <symbol id="icon-Youtube" viewBox="0 0 31 32">
      <path fill="#fff" d="M28 10a3 3 0 0 0-3-2L15 7 5 8a3 3 0 0 0-2 2v12l2 3h20a3 3 0 0 0 3-3V10zM13 20v-8l6 4-6 4z" />
    </symbol>
    <symbol id="icon-Vector-1" viewBox="0 0 35 32">
      <path
        d="M16.123 1.025c0.576-1.367 2.536-1.367 3.112 0l3.397 8.070c0.243 0.576 0.791 0.97 1.421 1.020l8.819 0.698c1.494 0.118 2.1 1.96 0.962 2.924l-6.719 5.686c-0.48 0.406-0.69 1.044-0.543 1.651l2.053 8.501c0.348 1.44-1.238 2.579-2.518 1.807l-7.55-4.556c-0.539-0.326-1.218-0.326-1.757 0l-7.55 4.556c-1.279 0.772-2.865-0.367-2.518-1.807l2.053-8.501c0.147-0.607-0.063-1.244-0.543-1.651l-6.719-5.686c-1.138-0.963-0.533-2.805 0.962-2.924l8.819-0.698c0.63-0.050 1.179-0.444 1.421-1.020l3.398-8.070z">
      </path>
    </symbol>
    <symbol id="icon-Icon" viewBox="0 0 32 32">
      <path fill="#fff" style="fill: var(--color1, #fff)"
        d="M22.835 22.364l-0.471 0.471c-0.26 0.26-0.682 0.26-0.943 0l-5.421-5.421-5.421 5.421c-0.26 0.26-0.682 0.26-0.943 0l-0.471-0.471c-0.26-0.26-0.26-0.682 0-0.943l5.421-5.421-5.421-5.421c-0.26-0.26-0.26-0.682 0-0.943l0.471-0.471c0.26-0.26 0.682-0.26 0.943 0l5.421 5.421 5.421-5.421c0.26-0.26 0.683-0.26 0.943 0l0.471 0.471c0.26 0.26 0.26 0.682 0 0.943l-5.421 5.421 5.421 5.421c0.26 0.26 0.26 0.683 0 0.943z">
      </path>
    </symbol>
  </defs>

  </symbol>
  <symbol id="feedback-left" viewBox="0 0 24 24">

    <g class="layer">
      <title>Layer 1</title>
      <path d="m13.41,17.3l-4.3,-4.3l9.59,0l0,-2l-9.59,0l4.3,-4.29l-1.42,-1.41l-6.7,6.7l6.7,6.71l1.42,-1.41z"
        fill="currentColor" id="svg_1" />
    </g>

  </symbol>
  <symbol id="feedback-right" viewBox="0 0 24 24">

    <g class="layer">
      <title>Layer 1</title>
      <path d="m13.41,17.3l-4.3,-4.3l9.59,0l0,-2l-9.59,0l4.3,-4.29l-1.42,-1.41l-6.7,6.7l6.7,6.71l1.42,-1.41z"
        fill="currentColor" id="svg_1" transform="scale(-1,1) translate(-24,0)" />
    </g>

  </symbol>
  <symbol id="star-empty" viewBox="0 0 20 20">

    <g class="layer">
      <title>Layer 1</title>
      <polygon fill="white" id="svg_1"
        points="10,1 12.4,7.2 19,7.5 13.8,11.5 15.5,18 10,14.5 4.5,18 6.2,11.5 1,7.5 7.6,7.2" stroke="white"
        stroke-linejoin="round"
        style="--darkreader-inline-fill: var(--darkreader-text-ffffff, #e8e6e3); --darkreader-inline-stroke: var(--darkreader-text-ffffff, #e8e6e3);" />
    </g>

  </symbol>
  <symbol id="icon-company-logo" viewBox="0 0 81 32">
    <path fill="purple" d="M10 10h61v12H10z" />
  </symbol>
  <symbol id="star-filled" viewBox="0 0 20 20">

    <g class="layer">
      <title>Layer 1</title>
      <polygon fill="#764191" id="svg_1"
        points="10,1 12.4,7.2 19,7.5 13.8,11.5 15.5,18 10,14.5 4.5,18 6.2,11.5 1,7.5 7.6,7.2" stroke="#764191"
        stroke-linejoin="round"
        style="--darkreader-inline-fill: var(--darkreader-text-764191, #a876c2); --darkreader-inline-stroke: var(--darkreader-text-764191, #a876c2);" />
    </g>
  </symbol>
  <svg xmlns="http://www.w3.org/2000/svg" aria-hidden="true" style="position:absolute;width:0;height:0;overflow:hidden">
    <defs>
      <symbol id="icon-logo" viewBox="0 0 112 32">
        <path fill="#fff"
          d="M17 0h1l2 2v3l-2 2v4l2 1c2 1 3 2 3 4v6l-4 3c-3 0-5 0-6-2l-3 3v3l-1 2H6l-3-1a4 4 0 0 1 2-6h3l3-2-1-6-3-2-2 2-3-1-2-3 1-2 3-2 2 1 2 3 3 2 5-3V7h-1a4 4 0 0 1-1-5c1-1 1-2 3-2zm4 18a4 4 0 1 0-9 0 4 4 0 0 0 9 0zm82-6h2v4l2-1 3 1 1 3-1 4-2 1-3-1v1h-2V12zm4 5-2 1v2l1 2h1l2-1v-3l-1-1h-1zm-65-5 4 12h-3l-1-3h-4l-1 3h-2l4-12h3zm-2 3-1 4h3l-2-4zm50-3h3v11l-1 1h-2v-5h-5v5h-2V12h2v5h5v-5zm4 3h2v6l1 1 2-1v-6h2v9h-2v-1l-2 1-2-1-1-2v-6zm-30 0 3 1 1 2h-2v-1h-2v1l3 1 1 2v1l-3 2-2-1-1-2a96 96 0 0 0 2 0l1 1h1v-1l-3-2-1-1v-2l2-1zm14 0h1l2 1v2h-1l-1-1h-2v1l4 1 1 1-1 2-2 2-3-1-1-2h2v1h2l1-1-4-1-1-2v-2l3-1zm-25-2h2v2h2v2h-2v5h2v2h-1l-2-1-1-6h-1v-2h1v-2zm17 0h2v2h2v2h-2v5h2v1l-1 1-2-1-1-6h-1v-2h1v-2zm-42-1h1v12h-2V12h1zm23 3v2l-2 1-1 6-2-1v-8h2v1h1l2-1zm7 0h2v9h-2v-9zm-33-1 1 1v6h-2v-6l1-1zm34-2a1 1 0 1 1 0 2 1 1 0 0 1 0-2z"
          style="fill:var(--color1, #fff)" />
      </symbol>
      <symbol id="icon-right-arrow" viewBox="0 0 32 32">
        <path fill="#fff"
          d="M7 29a1 1 0 0 0 2 0l17-12a1 1 0 0 0 1-1 1 1 0 0 0-1-1L9 3a1 1 0 0 0-2 0 1 1 0 0 0 0 1v24a1 1 0 0 0 0 1zM9 7l14 9-14 9V7z"
          style="fill:var(--color1, #fff)" />
      </symbol>
      <symbol id="icon-caret-right" viewBox="0 0 31 32">
        <path fill="#fff" d="m12 26 10-9-10-9v18z" style="fill:var(--color1, #fff)" />
      </symbol>
      <symbol id="icon-down-arrow-alt" viewBox="0 0 31 32">
        <path fill="#fff" d="m24 17-2-2-5 5V8h-3v12l-5-5-2 2 8 8 9-8z" style="fill:var(--color1, #fff)" />
      </symbol>
      <symbol id="icon-logo-icon" viewBox="0 0 32 32">
        <path fill="#fff"
          d="M18 3h1l2 2v2l-2 2v3l2 1a6 6 0 0 1-2 10c-2 1-3 0-5-1l-2 3v2l-1 1-3 1-2-2v-2l2-2h2l3-2c-1-2-2-3-1-5l-3-1-2 1-3-1-1-2 1-2a4 4 0 0 1 5-1l1 3 3 1 4-2V9h-1l-2-2 1-3 2-1zm-1 11c-2 0-3 2-3 4s2 3 4 3 4-2 4-4-3-3-5-3zm11-1h1v9l-1 1-1-1v-9h1zm-3 2h1v5h-2v-5h1z"
          style="fill:var(--color1, #fff)" />
      </symbol>
      <symbol id="icon-left-arrow-alt" viewBox="0 0 24 24">
        <path d="m13.41,17.3l-4.3,-4.3l9.59,0l0,-2l-9.59,0l4.3,-4.29l-1.42,-1.41l-6.7,6.7l6.7,6.71l1.42,-1.41z"
          fill="currentColor" />
      </symbol>
      <symbol id="icon-right-arrow-alt" viewBox="0 0 24 24">
        <path d="m13.41,17.3l-4.3,-4.3l9.59,0l0,-2l-9.59,0l4.3,-4.29l-1.42,-1.41l-6.7,6.7l6.7,6.71l1.42,-1.41z"
          fill="currentColor" transform="scale(-1,1) translate(-24,0)" />
      </symbol>
      <symbol id="star-empty" viewBox="0 0 20 20">
        <path fill="#fff" points="10,1 12.4,7.2 19,7.5 13.8,11.5 15.5,18 10,14.5 4.5,18 6.2,11.5 1,7.5 7.6,7.2"
          stroke="white" stroke-linejoin="round" />
      </symbol>
      <symbol id="star-filled" viewBox="0 0 20 20">
        <path fill="#764191" points="10,1 12.4,7.2 19,7.5 13.8,11.5 15.5,18 10,14.5 4.5,18 6.2,11.5 1,7.5 7.6,7.2"
          stroke="#764191" stroke-linejoin="round" />
      </symbol>
      <symbol id="icon-Instagram" viewBox="0 0 31 32">
        <path fill="#fff"
          d="M15 7a81 81 0 0 1 7 0l1 1 1 1 1 2a81 81 0 0 1-1 12l-1 1-1 1h-2a81 81 0 0 1-11 0l-2-1-1-1v-2A81 81 0 0 1 6 9l1-1 2-1h6zm0-2a84 84 0 0 0-7 0L6 7 4 9v2a85 85 0 0 0 0 13l2 2 2 1 3 1a84 84 0 0 0 12-1l2-1 1-2 1-3a84 84 0 0 0-1-12l-1-2-2-2h-8z"
          style="fill:var(--color1, #fff)" />
        <path fill="#fff"
          d="M15 10a6 6 0 1 0 0 12 6 6 0 0 0 0-12zm0 10a4 4 0 1 1 0-8 4 4 0 0 1 0 8zm8-10a1 1 0 1 1-3 0 1 1 0 0 1 3 0z"
          style="fill:var(--color1, #fff)" />
      </symbol>
      <symbol id="icon-Facebook" viewBox="0 0 31 32">
        <path fill="#fff"
          d="M28 17c0-8-6-13-13-13a13 13 0 0 0-2 25v-9h-3v-3h3v-3c0-4 2-5 5-5h3v3h-2l-2 2v3h4l-1 3h-3v9c6-1 11-6 11-12z"
          style="fill:var(--color1, #fff)" />
      </symbol>
      <symbol id="icon-Youtube" viewBox="0 0 31 32">
        <path fill="#fff" d="M28 10a3 3 0 0 0-3-2L15 7 5 8a3 3 0 0 0-2 2v12l2 3h20a3 3 0 0 0 3-3V10zM13 20v-8l6 4-6 4z"
          style="fill:var(--color1, #fff)" />
      </symbol>
      <symbol id="icon-logo-footer" viewBox="0 0 112 32">
        <path
          d="M17 0h1l2 2v3l-2 2v4l2 1c2 1 3 2 3 4v6l-4 3c-3 0-5 0-6-2l-3 3v3l-1 2H6l-3-1a4 4 0 0 1 2-6h3l3-2-1-6-3-2-2 2-3-1-2-3 1-2 3-2 2 1 2 3 3 2 5-3V7h-1a4 4 0 0 1-1-5c1-1 1-2 3-2zm4 18a4 4 0 1 0-9 0 4 4 0 0 0 9 0zm82-6h2v4l2-1 3 1 1 3-1 4-2 1-3-1v1h-2V12zm4 5-2 1v2l1 2h1l2-1v-3l-1-1h-1zm-65-5 4 12h-3l-1-3h-4l-1 3h-2l4-12h3zm-2 3-1 4h3l-2-4zm50-3h3v11l-1 1h-2v-5h-5v5h-2V12h2v5h5v-5zm4 3h2v6l1 1 2-1v-6h2v9h-2v-1l-2 1-2-1-1-2v-6zm-30 0 3 1 1 2h-2v-1h-2v1l3 1 1 2v1l-3 2-2-1-1-2a96 96 0 0 0 2 0l1 1h1v-1l-3-2-1-1v-2l2-1zm14 0h1l2 1v2h-1l-1-1h-2v1l4 1 1 1-1 2-2 2-3-1-1-2h2v1h2l1-1-4-1-1-2v-2l3-1zm-25-2h2v2h2v2h-2v5h2v2h-1l-2-1-1-6h-1v-2h1v-2zm17 0h2v2h2v2h-2v5h2v1l-1 1-2-1-1-6h-1v-2h1v-2zm-42-1h1v12h-2V12h1zm23 3v2l-2 1-1 6-2-1v-8h2v1h1l2-1zm7 0h2v9h-2v-9zm-33-1 1 1v6h-2v-6l1-1zm34-2a1 1 0 1 1 0 2 1 1 0 0 1 0-2z"
          style="fill:var(--color1, #764191)" />
      </symbol>
      <symbol id="icon-company-logo" viewBox="0 0 81 32">
        <path fill="#currentColor"
          d="M15.228 7.528c0.292-0.034 0.631 0.032 0.912 0.117 0.637 0.194 1.155 0.609 1.462 1.202 0.319 0.608 0.38 1.319 0.17 1.973-0.267 0.806-0.841 1.212-1.557 1.584l0.008 2.351c0.512 0.156 1.010 0.333 1.474 0.602 1.068 0.619 1.798 1.663 2.105 2.85 0.324 1.245 0.14 2.569-0.512 3.679-0.598 1.006-1.55 1.749-2.691 2.034-1.49 0.372-2.754-0.031-4.035-0.792-0.566 0.605-1.125 1.217-1.677 1.836 0.247 0.582 0.329 1.193 0.165 1.812-0.16 0.605-0.584 1.123-1.126 1.429-0.607 0.344-1.299 0.406-1.965 0.215-0.661-0.189-1.216-0.598-1.539-1.213-0.318-0.605-0.345-1.314-0.139-1.959 0.234-0.734 0.712-1.186 1.383-1.521 0.723-0.283 1.32-0.19 2.026 0.065 0.587-0.618 1.14-1.268 1.734-1.881-0.652-1.279-0.864-2.369-0.524-3.778-0.738-0.345-1.45-0.746-2.189-1.091-0.395 0.411-0.878 0.693-1.444 0.788-0.676 0.114-1.388-0.071-1.944-0.467-0.55-0.399-0.912-1.007-1.001-1.681-0.091-0.653 0.081-1.373 0.499-1.889 0.431-0.532 1.101-0.853 1.777-0.924 0.664-0.065 1.327 0.138 1.842 0.563 0.658 0.551 0.848 1.237 0.928 2.053 0.7 0.429 1.502 0.76 2.232 1.143 0.949-1.122 1.643-1.476 3.027-1.903l0.001-2.334c-0.248-0.099-0.495-0.22-0.711-0.378-0.546-0.404-0.905-1.012-0.993-1.685-0.082-0.67 0.108-1.345 0.526-1.874 0.457-0.573 1.068-0.834 1.777-0.928zM18.279 19.136c-0.141-1.605-1.552-2.796-3.158-2.665-1.62 0.132-2.823 1.557-2.681 3.177s1.575 2.814 3.194 2.662c1.604-0.151 2.786-1.569 2.645-3.174z">
        </path>
        <path fill="#764191"
          d="M72.986 15.491c0.477 0.001 0.954 0.007 1.432 0.019l-0.003 2.522c0.367-0.286 0.768-0.499 1.233-0.569 0.629-0.095 1.27 0.068 1.777 0.452 0.612 0.463 0.934 1.242 1.026 1.986 0.118 0.945-0.104 1.853-0.687 2.606-0.387 0.373-0.851 0.634-1.386 0.722-0.785 0.129-1.408-0.146-2.020-0.603l-0.003 0.551-1.37-0.003-0.001-7.685zM75.439 18.796c-0.425 0.141-0.721 0.343-0.929 0.753-0.23 0.455-0.246 1.017-0.066 1.491 0.137 0.363 0.394 0.677 0.753 0.838 0.26 0.118 0.505 0.121 0.785 0.105 0.444-0.168 0.743-0.383 0.944-0.828 0.21-0.464 0.207-1.024 0.008-1.492-0.153-0.36-0.426-0.649-0.793-0.791-0.23-0.089-0.46-0.1-0.702-0.075z">
        </path>
        <path fill="#764191"
          d="M31.987 15.476c0.84 2.588 1.914 5.105 2.733 7.7l-1.548 0.001c-0.181-0.554-0.356-1.181-0.633-1.693-0.181-0.077-0.395-0.051-0.588-0.049-0.746 0.007-1.493 0.005-2.239-0.008-0.234 0.572-0.423 1.16-0.609 1.749l-1.576-0.001c0.823-2.583 1.804-5.133 2.693-7.696 0.588 0.013 1.179-0.001 1.767-0.003zM31.105 17.389c-0.326 0.926-0.63 1.865-0.986 2.78l1.133-0.001 0.88-0.010c-0.124-0.348-0.842-2.615-1.027-2.77z">
        </path>
        <path fill="#764191"
          d="M64.614 15.493l1.48 0.009c-0.020 1.784-0.004 3.57-0.005 5.354-0.001 0.736 0.074 1.541-0.008 2.268l-0.081 0.056h-1.387l-0.003-3.294c-1.109-0.031-2.226-0.003-3.335-0.002l0.001 3.298-1.489-0.003 0.006-7.683 1.483 0.003 0.001 3.141h3.34l-0.002-3.147z">
        </path>
        <path fill="#764191"
          d="M66.984 17.622c0.491 0.014 0.984 0.009 1.475 0.012-0.006 0.785-0.13 2.954 0.060 3.603 0.075 0.256 0.225 0.491 0.467 0.615 0.364 0.187 0.735 0.079 1.097-0.048 0.16-0.179 0.298-0.347 0.378-0.579 0.259-0.757 0.121-2.7 0.117-3.601 0.468 0.013 0.937 0.003 1.405 0-0.011 0.539-0.002 1.081-0.003 1.62l0.007 3.931c-0.46 0.007-0.92 0.003-1.379-0.010l-0.042-0.050c0.007-0.117 0.008-0.212-0.012-0.328-0.431 0.187-0.815 0.47-1.305 0.48-0.568 0.011-1.185-0.165-1.593-0.574-0.309-0.309-0.498-0.725-0.595-1.148-0.209-0.908-0.086-2.92-0.076-3.925z">
        </path>
        <path fill="#764191"
          d="M47.093 17.467c0.734-0.057 1.499-0.006 2.092 0.489 0.416 0.346 0.55 0.762 0.595 1.278l-1.326-0.001c-0.076-0.142-0.153-0.306-0.272-0.417-0.191-0.176-0.468-0.268-0.726-0.254-0.201 0.011-0.458 0.091-0.583 0.261-0.076 0.103-0.118 0.21-0.089 0.339 0.151 0.68 1.88 0.596 2.431 0.956 0.35 0.23 0.619 0.641 0.697 1.051 0.078 0.42-0.022 0.853-0.275 1.196-0.423 0.583-1.074 0.792-1.751 0.896-0.627 0.038-1.355-0.131-1.857-0.513-0.471-0.359-0.64-0.798-0.704-1.365 0.447 0.001 0.894-0.003 1.341-0.012 0.026 0.084 0.055 0.165 0.098 0.243 0.195 0.359 0.583 0.439 0.943 0.545 0.238-0.055 0.56-0.116 0.729-0.308 0.102-0.116 0.137-0.318 0.095-0.465-0.165-0.568-1.822-0.635-2.397-0.989-0.34-0.21-0.591-0.515-0.681-0.909-0.082-0.357-0.051-0.758 0.15-1.071 0.362-0.566 0.863-0.799 1.493-0.949z">
        </path>
        <path fill="#764191"
          d="M56.018 17.466c0.418-0.034 0.827-0.032 1.234 0.079 0.47 0.127 0.969 0.39 1.206 0.835 0.114 0.213 0.202 0.597 0.125 0.834-0.381 0.082-0.846 0.027-1.237 0.022-0.058-0.194-0.106-0.343-0.264-0.477-0.199-0.166-0.458-0.245-0.716-0.217-0.202 0.021-0.462 0.12-0.574 0.301-0.067 0.108-0.095 0.219-0.053 0.343 0.244 0.72 1.709 0.549 2.278 0.874 0.362 0.207 0.666 0.572 0.769 0.98 0.111 0.438 0.038 0.924-0.215 1.301-0.377 0.562-0.977 0.774-1.609 0.897-0.621 0.077-1.34-0.055-1.859-0.413-0.533-0.367-0.693-0.828-0.813-1.431l1.33-0.010c0.081 0.203 0.154 0.362 0.327 0.503 0.23 0.188 0.502 0.273 0.798 0.234 0.23-0.031 0.456-0.136 0.593-0.328 0.090-0.126 0.134-0.279 0.092-0.432-0.166-0.591-1.635-0.555-2.217-0.868-0.394-0.212-0.705-0.565-0.83-0.998-0.106-0.366-0.062-0.748 0.132-1.078 0.322-0.546 0.912-0.813 1.503-0.949z">
        </path>
        <path fill="#764191"
          d="M39.649 16.097c0.441 0.015 0.886 0.006 1.328 0.008-0.005 0.498 0.002 0.997 0.022 1.495l1.31 0.001-0.003 1.142-1.248-0c0.001 0.719-0.164 2.572 0.166 3.128 0.258 0.203 0.772 0.127 1.085 0.124l-0.004 0.946c0.003 0.098 0.002 0.147-0.047 0.232-0.174 0.084-0.353 0.102-0.546 0.104-0.507 0.004-1.207-0.087-1.571-0.467-0.732-0.762-0.498-3.004-0.495-4.067l-0.845 0.001 0.003-1.144 0.842 0.006 0.004-1.507z">
        </path>
        <path fill="#764191"
          d="M51.037 16.091l1.303 0.007c-0.010 0.499 0.011 1.001 0.020 1.5l1.331-0.003-0.002 1.147-1.253-0.001c0.015 0.684-0.152 2.595 0.158 3.112 0.333 0.199 0.75 0.146 1.124 0.145-0.004 0.33 0.002 0.66 0.003 0.99l-0.016 0.125c-0.129 0.137-0.328 0.131-0.503 0.135-0.535 0.013-1.275-0.072-1.663-0.478-0.725-0.759-0.499-2.969-0.493-4.029l-0.891 0c-0.011-0.38-0.007-0.761-0.010-1.14l0.888 0.005 0.002-1.516z">
        </path>
        <path fill="#764191"
          d="M22.922 15.237c0.069-0.003 0.135-0.004 0.203 0.005 0.213 0.031 0.423 0.134 0.54 0.321 0.124 0.198 0.142 0.463 0.159 0.693 0.084 1.138 0.022 2.321 0.021 3.463-0 0.932 0.103 2.197-0.070 3.094-0.054 0.282-0.242 0.417-0.466 0.57-0.085 0.010-0.175 0.022-0.261 0.017-0.192-0.011-0.374-0.097-0.499-0.243-0.123-0.145-0.119-0.437-0.13-0.619-0.078-1.309-0.012-2.659-0.011-3.972 0.001-0.746-0.102-2.174 0.055-2.839 0.056-0.238 0.271-0.363 0.458-0.49z">
        </path>
        <path fill="#764191"
          d="M38.034 17.58l0.187-0.002c0.222 0.248 0.112 1.034 0.105 1.36-0.469-0.005-0.913-0.024-1.28 0.317-0.689 0.639-0.457 2.982-0.464 3.922-0.37-0.003-1.089 0.132-1.372-0.103l-0.015-0.233c0.007-1.743-0.037-3.484-0.026-5.226 0.447 0.014 0.896 0.004 1.344 0.002l-0.016 0.769c0.083-0.119 0.165-0.247 0.262-0.355 0.339-0.383 0.799-0.417 1.274-0.451z">
        </path>
        <path fill="#764191" d="M43.123 17.603l1.406 0.001 0.003 5.577-1.422-0.002 0.013-5.575z"></path>
        <path fill="#764191"
          d="M20.959 17.065c0.231 0.043 0.435 0.129 0.57 0.33 0.207 0.309 0.213 3.339 0.109 3.771-0.057 0.236-0.261 0.352-0.455 0.465-0.222-0.013-0.514-0.033-0.662-0.226-0.221-0.286-0.202-3.506-0.077-3.91 0.073-0.235 0.314-0.334 0.516-0.431z">
        </path>
        <path fill="#764191"
          d="M43.733 15.305c0.418-0.049 0.799 0.243 0.86 0.659s-0.219 0.805-0.633 0.879c-0.279 0.050-0.563-0.056-0.741-0.277s-0.222-0.52-0.115-0.782c0.107-0.262 0.348-0.446 0.629-0.479z">
        </path>
      </symbol>
    </defs>
  </svg>
  </def>
</svg>