<svg xmlns="http://www.w3.org/2000/svg" style="display:none">
<symbol id="icon" viewBox="0 0 112 32">

  <defs>
    <symbol id="icon-logo" viewBox="0 0 112 32">
      <path fill="#fff" d="M17 0h1l2 2v3l-2 2v4l2 1c2 1 3 2 3 4v6l-4 3c-3 0-5 0-6-2l-3 3v3l-1 2H6l-3-1a4 4 0 0 1 2-6h3l3-2-1-6-3-2-2 2-3-1-2-3 1-2 3-2 2 1 2 3 3 2 5-3V7h-1a4 4 0 0 1-1-5c1-1 1-2 3-2zm4 18a4 4 0 1 0-9 0 4 4 0 0 0 9 0zm82-6h2v4l2-1 3 1 1 3-1 4-2 1-3-1v1h-2V12zm4 5-2 1v2l1 2h1l2-1v-3l-1-1h-1zm-65-5 4 12h-3l-1-3h-4l-1 3h-2l4-12h3zm-2 3-1 4h3l-2-4zm50-3h3v11l-1 1h-2v-5h-5v5h-2V12h2v5h5v-5zm4 3h2v6l1 1 2-1v-6h2v9h-2v-1l-2 1-2-1-1-2v-6zm-30 0 3 1 1 2h-2v-1h-2v1l3 1 1 2v1l-3 2-2-1-1-2a96 96 0 0 0 2 0l1 1h1v-1l-3-2-1-1v-2l2-1zm14 0h1l2 1v2h-1l-1-1h-2v1l4 1 1 1-1 2-2 2-3-1-1-2h2v1h2l1-1-4-1-1-2v-2l3-1zm-25-2h2v2h2v2h-2v5h2v2h-1l-2-1-1-6h-1v-2h1v-2zm17 0h2v2h2v2h-2v5h2v1l-1 1-2-1-1-6h-1v-2h1v-2zm-42-1h1v12h-2V12h1zm23 3v2l-2 1-1 6-2-1v-8h2v1h1l2-1zm7 0h2v9h-2v-9zm-33-1 1 1v6h-2v-6l1-1zm34-2a1 1 0 1 1 0 2 1 1 0 0 1 0-2z" />
    </symbol>
    <symbol id="icon-right-arrow" viewBox="0 0 32 32">
      <path fill="#fff" d="M7 29a1 1 0 0 0 2 0l17-12a1 1 0 0 0 1-1 1 1 0 0 0-1-1L9 3a1 1 0 0 0-2 0 1 1 0 0 0 0 1v24a1 1 0 0 0 0 1zM9 7l14 9-14 9V7z" />
    </symbol>
    <symbol id="icon-caret-right" viewBox="0 0 31 32">
      <path fill="#fff" d="m12 26 10-9-10-9v18z" />
    </symbol>
    <symbol id="icon-down-arrow-alt" viewBox="0 0 31 32">
      <path fill="#fff" d="m24 17-2-2-5 5V8h-3v12l-5-5-2 2 8 8 9-8z" />
    </symbol>
    <symbol id="icon-logo-icon" viewBox="0 0 32 32">
      <path fill="#fff" d="M18 3h1l2 2v2l-2 2v3l2 1a6 6 0 0 1-2 10c-2 1-3 0-5-1l-2 3v2l-1 1-3 1-2-2v-2l2-2h2l3-2c-1-2-2-3-1-5l-3-1-2 1-3-1-1-2 1-2a4 4 0 0 1 5-1l1 3 3 1 4-2V9h-1l-2-2 1-3 2-1zm-1 11c-2 0-3 2-3 4s2 3 4 3 4-2 4-4-3-3-5-3zm11-1h1v9l-1 1-1-1v-9h1zm-3 2h1v5h-2v-5h1z" />
    </symbol>
    <symbol id="icon-left-arrow-alt" viewBox="0 0 31 32">
      <path fill="#fff" d="m16 23-5-6h12v-2H11l5-6-2-2-8 9 8 8 2-1z" />
    </symbol>
    <symbol id="icon-right-arrow-alt" viewBox="0 0 31 32">
      <path fill="#fff" d="m14 23 2 1 9-8-9-9-2 2 6 6H8v2h12l-6 6z" />
    </symbol>
    <symbol id="icon-Instagram" viewBox="0 0 31 32">
      <path fill="#fff" d="M15 7a81 81 0 0 1 7 0l1 1 1 1 1 2a81 81 0 0 1-1 12l-1 1-1 1h-2a81 81 0 0 1-11 0l-2-1-1-1v-2A81 81 0 0 1 6 9l1-1 2-1h6zm0-2a84 84 0 0 0-7 0L6 7 4 9v2a85 85 0 0 0 0 13l2 2 2 1 3 1a84 84 0 0 0 12-1l2-1 1-2 1-3a84 84 0 0 0-1-12l-1-2-2-2h-8z" />
      <path fill="#fff" d="M15 10a6 6 0 1 0 0 12 6 6 0 0 0 0-12zm0 10a4 4 0 1 1 0-8 4 4 0 0 1 0 8zm8-10a1 1 0 1 1-3 0 1 1 0 0 1 3 0z" />
    </symbol>
    <symbol id="icon-Facebook" viewBox="0 0 31 32">
      <path fill="#fff" d="M28 17c0-8-6-13-13-13a13 13 0 0 0-2 25v-9h-3v-3h3v-3c0-4 2-5 5-5h3v3h-2l-2 2v3h4l-1 3h-3v9c6-1 11-6 11-12z" />
    </symbol>
    <symbol id="icon-Youtube" viewBox="0 0 31 32">
      <path fill="#fff" d="M28 10a3 3 0 0 0-3-2L15 7 5 8a3 3 0 0 0-2 2v12l2 3h20a3 3 0 0 0 3-3V10zM13 20v-8l6 4-6 4z" />
    </symbol>
    <symbol id="icon-Vector-1" viewBox="0 0 35 32">
<path d="M16.123 1.025c0.576-1.367 2.536-1.367 3.112 0l3.397 8.070c0.243 0.576 0.791 0.97 1.421 1.020l8.819 0.698c1.494 0.118 2.1 1.96 0.962 2.924l-6.719 5.686c-0.48 0.406-0.69 1.044-0.543 1.651l2.053 8.501c0.348 1.44-1.238 2.579-2.518 1.807l-7.55-4.556c-0.539-0.326-1.218-0.326-1.757 0l-7.55 4.556c-1.279 0.772-2.865-0.367-2.518-1.807l2.053-8.501c0.147-0.607-0.063-1.244-0.543-1.651l-6.719-5.686c-1.138-0.963-0.533-2.805 0.962-2.924l8.819-0.698c0.63-0.050 1.179-0.444 1.421-1.020l3.398-8.070z"></path>
</symbol>
<symbol id="icon-Icon" viewBox="0 0 32 32">
<path fill="#fff" style="fill: var(--color1, #fff)" d="M22.835 22.364l-0.471 0.471c-0.26 0.26-0.682 0.26-0.943 0l-5.421-5.421-5.421 5.421c-0.26 0.26-0.682 0.26-0.943 0l-0.471-0.471c-0.26-0.26-0.26-0.682 0-0.943l5.421-5.421-5.421-5.421c-0.26-0.26-0.26-0.682 0-0.943l0.471-0.471c0.26-0.26 0.682-0.26 0.943 0l5.421 5.421 5.421-5.421c0.26-0.26 0.683-0.26 0.943 0l0.471 0.471c0.26 0.26 0.26 0.682 0 0.943l-5.421 5.421 5.421 5.421c0.26 0.26 0.26 0.683 0 0.943z"></path>
</symbol>
  </defs>

</symbol>
<symbol id="feedback-left" viewBox="0 0 24 24">

 <g class="layer">
  <title>Layer 1</title>
  <path d="m13.41,17.3l-4.3,-4.3l9.59,0l0,-2l-9.59,0l4.3,-4.29l-1.42,-1.41l-6.7,6.7l6.7,6.71l1.42,-1.41z" fill="currentColor" id="svg_1"/>
 </g>

</symbol>
<symbol id="feedback-right" viewBox="0 0 24 24">

 <g class="layer">
  <title>Layer 1</title>
  <path d="m13.41,17.3l-4.3,-4.3l9.59,0l0,-2l-9.59,0l4.3,-4.29l-1.42,-1.41l-6.7,6.7l6.7,6.71l1.42,-1.41z" fill="currentColor" id="svg_1" transform="scale(-1,1) translate(-24,0)"/>
 </g>

</symbol>
<symbol id="star-empty" viewBox="0 0 20 20">

 <g class="layer">
  <title>Layer 1</title>
  <polygon fill="white" id="svg_1" points="10,1 12.4,7.2 19,7.5 13.8,11.5 15.5,18 10,14.5 4.5,18 6.2,11.5 1,7.5 7.6,7.2" stroke="white" stroke-linejoin="round" style="--darkreader-inline-fill: var(--darkreader-text-ffffff, #e8e6e3); --darkreader-inline-stroke: var(--darkreader-text-ffffff, #e8e6e3);"/>
 </g>

</symbol>
<symbol id="star-filled" viewBox="0 0 20 20">

 <g class="layer">
  <title>Layer 1</title>
  <polygon fill="#764191" id="svg_1" points="10,1 12.4,7.2 19,7.5 13.8,11.5 15.5,18 10,14.5 4.5,18 6.2,11.5 1,7.5 7.6,7.2" stroke="#764191" stroke-linejoin="round" style="--darkreader-inline-fill: var(--darkreader-text-764191, #a876c2); --darkreader-inline-stroke: var(--darkreader-text-764191, #a876c2);"/>
 </g>

</symbol>
</svg>