<svg width="80" height="81" fill="none" xmlns="http://www.w3.org/2000/svg">
    <path
        d="M43.75 8.088c.962-.103 2.075.097 3 .36 2.095.594 3.797 1.867 4.807 3.684a7.354 7.354 0 0 1 .558 6.042c-.879 2.47-2.763 3.712-5.117 4.853l.026 7.202c1.683.478 3.32 1.02 4.847 1.844 3.51 1.896 5.912 5.094 6.919 8.732 1.064 3.816.46 7.87-1.683 11.27-1.964 3.082-5.096 5.358-8.846 6.23-4.899 1.14-9.053-.094-13.263-2.426-1.861 1.854-3.7 3.729-5.515 5.624.812 1.783 1.08 3.654.542 5.549-.526 1.852-1.919 3.439-3.7 4.377-1.998 1.053-4.273 1.245-6.462.662-2.172-.58-3.998-1.834-5.06-3.718-1.045-1.853-1.134-4.023-.456-6.001.77-2.248 2.34-3.633 4.548-4.66 2.376-.866 4.34-.582 6.66.197 1.93-1.893 3.749-3.882 5.7-5.759-2.144-3.918-2.84-7.255-1.725-11.572-2.427-1.056-4.767-2.285-7.196-3.343-1.298 1.259-2.884 2.122-4.747 2.414-2.222.349-4.565-.216-6.39-1.431-1.81-1.222-3-3.083-3.293-5.147-.3-2.001.265-4.208 1.64-5.787 1.42-1.629 3.62-2.611 5.844-2.828 2.184-.198 4.364.422 6.055 1.724 2.163 1.689 2.788 3.787 3.05 6.288 2.302 1.315 4.94 2.33 7.338 3.503 3.121-3.438 5.401-4.522 9.95-5.829l.004-7.147c-.814-.304-1.627-.673-2.337-1.16-1.795-1.236-2.973-3.1-3.264-5.162-.27-2.052.352-4.12 1.727-5.743 1.502-1.756 3.51-2.555 5.84-2.842zm10.03 35.555c-.463-4.917-5.099-8.563-10.379-8.163-5.327.404-9.283 4.77-8.816 9.73.467 4.962 5.179 8.62 10.5 8.155 5.274-.463 9.158-4.805 8.695-9.722zM69.043 31.702c.225-.01.444-.013.668.017.7.095 1.39.41 1.776.983.41.607.465 1.417.521 2.12.278 3.485.072 7.11.07 10.608 0 2.855.34 6.728-.23 9.478-.179.865-.794 1.278-1.53 1.746-.281.032-.575.068-.858.053-.632-.033-1.231-.296-1.64-.745-.404-.446-.393-1.339-.429-1.897-.257-4.008-.04-8.145-.035-12.166.002-2.284-.335-6.658.18-8.697.185-.73.89-1.112 1.507-1.5zM62.589 37.3c.758.131 1.43.397 1.872 1.01.682.948.7 10.229.359 11.553-.187.725-.86 1.078-1.497 1.426-.73-.04-1.69-.101-2.177-.69-.726-.877-.666-10.741-.253-11.978.24-.719 1.033-1.023 1.696-1.32z"
        fill="#000" />
</svg>