<svg xmlns="http://www.w3.org/2000/svg" style="display:none">

  <!-- === Основні символи === -->
  <symbol id="icon-logo" viewBox="0 0 112 32">
    <path fill="#fff"
      d="M17 0h1l2 2v3l-2 2v4l2 1c2 1 3 2 3 4v6l-4 3c-3 0-5 0-6-2l-3 3v3l-1 2H6l-3-1a4 4 0 0 1 2-6h3l3-2-1-6-3-2-2 2-3-1-2-3 1-2 3-2 2 1 2 3 3 2 5-3V7h-1a4 4 0 0 1-1-5c1-1 1-2 3-2zm4 18a4 4 0 1 0-9 0 4 4 0 0 0 9 0z" />
  </symbol>

  <symbol id="icon-right-arrow" viewBox="0 0 32 32">
    <path fill="#fff"
      d="M7 29a1 1 0 0 0 2 0l17-12a1 1 0 0 0 1-1 1 1 0 0 0-1-1L9 3a1 1 0 0 0-2 0 1 1 0 0 0 0 1v24a1 1 0 0 0 0 1zM9 7l14 9-14 9V7z" />
  </symbol>

  <symbol id="feedback-left" viewBox="0 0 24 24">
    <path d="m13.41,17.3l-4.3,-4.3l9.59,0l0,-2l-9.59,0l4.3,-4.29l-1.42,-1.41l-6.7,6.7l6.7,6.71l1.42,-1.41z"
      fill="currentColor" />
  </symbol>

  <symbol id="feedback-right" viewBox="0 0 24 24">
    <path d="m13.41,17.3l-4.3,-4.3l9.59,0l0,-2l-9.59,0l4.3,-4.29l-1.42,-1.41l-6.7,6.7l6.7,6.71l1.42,-1.41z"
      fill="currentColor" transform="scale(-1,1) translate(-24,0)" />
  </symbol>

  <symbol id="star-empty" viewBox="0 0 20 20">
    <polygon fill="white" points="10,1 12.4,7.2 19,7.5 13.8,11.5 15.5,18 10,14.5 4.5,18 6.2,11.5 1,7.5 7.6,7.2"
      stroke="white" stroke-linejoin="round" />
  </symbol>

  <symbol id="star-filled" viewBox="0 0 20 20">
    <polygon fill="#764191" points="10,1 12.4,7.2 19,7.5 13.8,11.5 15.5,18 10,14.5 4.5,18 6.2,11.5 1,7.5 7.6,7.2"
      stroke="#764191" stroke-linejoin="round" />
  </symbol>

  <!-- Додай інші символи за потребою... -->

</svg>